<?xml version="1.0" encoding="iso-8859-1"?>
<!-- Generator: Adobe Illustrator 16.0.0, SVG Export Plug-In . SVG Version: 6.00 Build 0)  -->
<!DOCTYPE svg PUBLIC "-//W3C//DTD SVG 1.1//EN" "http://www.w3.org/Graphics/SVG/1.1/DTD/svg11.dtd">
<svg version="1.1" id="Capa_1" xmlns="http://www.w3.org/2000/svg" xmlns:xlink="http://www.w3.org/1999/xlink" x="0px" y="0px"
	 width="592.018px" height="592.017px" viewBox="0 0 592.018 592.017" style="enable-background:new 0 0 592.018 592.017;"
	 xml:space="preserve">
<g>
	<g>
		<g>
			<path d="M58.64,453.113h161.113c1.354,0.256,2.718,0.469,4.093,0.628v69.408c0,31.755,25.835,57.59,57.591,57.59h29.576
				c31.756,0,57.59-25.835,57.59-57.59v-69.321c1.65-0.168,3.285-0.409,4.904-0.715h159.869c32.059,0,58.141-26.082,58.141-58.141
				V69.419c0-32.058-26.082-58.14-58.141-58.14H58.64c-32.059,0-58.14,26.082-58.14,58.14v325.553
				C0.5,427.031,26.582,453.113,58.64,453.113z M325.764,426.037v27.075v70.036c0,8.146-6.604,14.75-14.75,14.75h-29.576
				c-8.146,0-14.75-6.604-14.75-14.75v-70.035v-27.075c0-8.146-6.604-14.75-14.75-14.75h-21.372c-1.971,0-3.8-0.366-5.454-1.015
				c-8.764-3.439-12.579-14.908-6.008-23.021l68.927-85.093c0.277-0.341,0.558-0.679,0.874-0.984
				c2.036-1.975,4.679-2.961,7.321-2.961c2.655,0,5.312,0.996,7.351,2.989c0.295,0.288,0.561,0.604,0.82,0.923l69.693,85.062
				c6.641,8.104,2.838,19.634-5.953,23.085c-1.654,0.648-3.484,1.015-5.457,1.015h-22.166
				C332.367,411.288,325.764,417.89,325.764,426.037z M548.676,394.972c0,8.45-6.85,15.301-15.299,15.301H418.615
				c1.572-6.371,2.057-12.98,1.396-19.544c-1.133-11.252-5.553-21.865-12.783-30.69l-69.693-85.063c-0.844-1.03-2.189-2.623-4-4.395
				c-10.045-9.812-23.285-15.206-37.308-15.207c-13.946,0-27.137,5.341-37.144,15.043c-1.956,1.896-3.407,3.625-4.328,4.76
				l-68.941,85.11c-7.161,8.84-11.519,19.446-12.603,30.671c-0.626,6.488-0.138,13.019,1.417,19.313H58.64
				c-8.451,0-15.3-6.851-15.3-15.3V190.031h505.336V394.972z M43.34,69.419c0-8.45,6.85-15.3,15.3-15.3h474.737
				c8.449,0,15.299,6.85,15.299,15.3v77.772H43.34V69.419z"/>
			<path d="M311.014,581.239h-29.576c-32.031,0-58.091-26.059-58.091-58.09v-68.965c-1.196-0.148-2.434-0.344-3.686-0.58
				L58.64,453.613C26.306,453.613,0,427.307,0,394.972V69.419c0-32.334,26.306-58.64,58.64-58.64h474.737
				c32.335,0,58.641,26.306,58.641,58.64v325.553c0,32.335-26.306,58.641-58.641,58.641H373.508
				c-1.422,0.276-2.925,0.502-4.404,0.665v68.871C369.104,555.18,343.045,581.239,311.014,581.239z M58.64,11.779
				C26.857,11.779,1,37.636,1,69.419v325.553c0,31.783,25.857,57.641,57.64,57.641h161.113c1.477,0.271,2.842,0.479,4.151,0.631
				l0.442,0.052v69.854c0,31.479,25.611,57.09,57.091,57.09h29.576c31.479,0,57.09-25.61,57.09-57.09v-69.773l0.449-0.045
				c1.595-0.163,3.23-0.401,4.862-0.709l159.962-0.009c31.783,0,57.641-25.857,57.641-57.641V69.419
				c0-31.783-25.857-57.64-57.641-57.64H58.64z M311.014,538.398h-29.576c-8.409,0-15.25-6.841-15.25-15.25v-97.11
				c0-7.857-6.393-14.25-14.25-14.25h-21.372c-1.964,0-3.86-0.353-5.637-1.049c-4.467-1.753-7.881-5.633-9.133-10.378
				c-1.242-4.707-0.178-9.6,2.919-13.423l68.927-85.093c0.276-0.34,0.574-0.699,0.915-1.029c2.062-2,4.786-3.102,7.669-3.102
				c2.899,0,5.634,1.112,7.7,3.132c0.324,0.316,0.612,0.663,0.858,0.964l69.692,85.062c3.129,3.818,4.217,8.72,2.984,13.446
				c-1.243,4.766-4.66,8.661-9.142,10.421c-1.776,0.696-3.674,1.049-5.64,1.049h-22.166c-7.857,0-14.25,6.392-14.25,14.249v97.111
				C326.264,531.557,319.423,538.398,311.014,538.398z M296.226,298.714c-2.622,0-5.098,1.001-6.973,2.82
				c-0.302,0.292-0.578,0.624-0.834,0.94l-68.927,85.092c-2.895,3.573-3.889,8.144-2.729,12.538c1.171,4.438,4.36,8.065,8.531,9.702
				c1.659,0.65,3.433,0.98,5.271,0.98h21.372c8.409,0,15.25,6.841,15.25,15.25v97.11c0,7.857,6.393,14.25,14.25,14.25h29.576
				c7.857,0,14.25-6.393,14.25-14.25v-97.111c0-8.408,6.841-15.249,15.25-15.249h22.166c1.841,0,3.615-0.33,5.274-0.98
				c4.185-1.643,7.377-5.284,8.539-9.742c1.151-4.413,0.134-8.991-2.79-12.56l-69.693-85.062c-0.229-0.279-0.496-0.602-0.783-0.882
				C301.349,299.725,298.862,298.714,296.226,298.714z M533.377,410.773h-115.4l0.153-0.62c1.571-6.367,2.037-12.885,1.385-19.374
				c-1.123-11.155-5.506-21.675-12.673-30.424l-69.693-85.063c-0.845-1.031-2.176-2.605-3.963-4.354
				c-9.943-9.713-23.069-15.063-36.958-15.064c-13.816,0-26.884,5.292-36.795,14.902c-1.932,1.872-3.372,3.588-4.288,4.716
				l-68.941,85.11c-7.099,8.763-11.419,19.276-12.494,30.404c-0.619,6.421-0.147,12.862,1.404,19.146l0.153,0.62H58.64
				c-8.712,0-15.8-7.088-15.8-15.8V189.531h506.336v205.441C549.176,403.685,542.089,410.773,533.377,410.773z M419.25,409.773
				h114.127c8.16,0,14.799-6.64,14.799-14.801V190.531H43.84v204.441c0,8.161,6.64,14.8,14.8,14.8h115.354
				c-1.459-6.196-1.89-12.539-1.279-18.861c1.094-11.324,5.49-22.022,12.712-30.938l68.941-85.11
				c0.932-1.148,2.398-2.896,4.369-4.804c10.098-9.792,23.413-15.185,37.489-15.185c0,0,0.001,0,0.002,0
				c14.151,0,27.525,5.452,37.657,15.349c1.823,1.784,3.177,3.386,4.037,4.436l69.693,85.064c7.292,8.9,11.751,19.605,12.894,30.957
				C421.152,397.072,420.729,403.492,419.25,409.773z M549.176,147.691H42.84V69.419c0-8.712,7.088-15.8,15.8-15.8h474.737
				c8.712,0,15.799,7.088,15.799,15.8V147.691z M43.84,146.691h504.336V69.419c0-8.161-6.639-14.8-14.799-14.8H58.64
				c-8.161,0-14.8,6.639-14.8,14.8V146.691z"/>
		</g>
		<g>
			<circle cx="504.088" cy="100.601" r="21.216"/>
			<path d="M504.088,122.317c-11.974,0-21.715-9.742-21.715-21.716s9.741-21.716,21.715-21.716c11.975,0,21.717,9.742,21.717,21.716
				S516.062,122.317,504.088,122.317z M504.088,79.884c-11.422,0-20.715,9.293-20.715,20.716s9.293,20.716,20.715,20.716
				c11.423,0,20.717-9.293,20.717-20.716S515.511,79.884,504.088,79.884z"/>
		</g>
		<g>
			<circle cx="440.848" cy="100.601" r="21.216"/>
			<path d="M440.848,122.317c-11.975,0-21.717-9.742-21.717-21.716s9.742-21.716,21.717-21.716s21.717,9.742,21.717,21.716
				S452.822,122.317,440.848,122.317z M440.848,79.884c-11.423,0-20.717,9.293-20.717,20.716s9.294,20.716,20.717,20.716
				s20.717-9.293,20.717-20.716S452.271,79.884,440.848,79.884z"/>
		</g>
		<g>
			<circle cx="377.607" cy="100.601" r="21.216"/>
			<path d="M377.607,122.317c-11.974,0-21.715-9.742-21.715-21.716s9.741-21.716,21.715-21.716c11.975,0,21.717,9.742,21.717,21.716
				S389.582,122.317,377.607,122.317z M377.607,79.884c-11.422,0-20.715,9.293-20.715,20.716s9.293,20.716,20.715,20.716
				c11.423,0,20.717-9.293,20.717-20.716S389.03,79.884,377.607,79.884z"/>
		</g>
	</g>
</g>
<g>
</g>
<g>
</g>
<g>
</g>
<g>
</g>
<g>
</g>
<g>
</g>
<g>
</g>
<g>
</g>
<g>
</g>
<g>
</g>
<g>
</g>
<g>
</g>
<g>
</g>
<g>
</g>
<g>
</g>
</svg>
